<svg width="120" height="120" viewBox="0 0 120 120" fill="none" xmlns="http://www.w3.org/2000/svg">
<rect width="120" height="120" fill="#F5F5F5"/>
<g id="40: New People - Georgia" clip-path="url(#clip0_0_1)">
<rect width="120" height="120" fill="white"/>
<path id="box" d="M100.978 19.1926V100.678H18.8858V19.1926H100.978Z" fill="white" stroke="black"/>
<g id="dd-type-swap">
<path id="dd-type-swap-reunion" d="M59.071 32.3145C61.7424 32.3145 63.9281 32.8609 65.6281 33.9538C67.3281 35.0466 68.7245 36.443 69.8174 38.143C71.0317 40.2073 71.8816 42.3323 72.3674 44.518C72.7316 46.8252 72.9138 48.7073 72.9138 50.1644C72.9138 56.1144 71.3959 61.518 68.3602 66.3751C65.3245 71.2322 60.5888 75.1786 54.1531 78.2143L52.5139 74.9358C56.2781 73.3572 59.5567 70.8679 62.3495 67.4679C65.021 64.0679 66.3567 60.6072 66.3567 57.0858C66.3567 55.6287 66.1745 54.3537 65.8102 53.2608C63.8674 54.8394 61.621 55.6287 59.071 55.6287C55.9138 55.6287 53.1817 54.5966 50.8746 52.5323C48.5674 50.468 47.4139 47.6144 47.4139 43.9716C47.4139 40.5716 48.5674 37.7788 50.8746 35.593C53.1817 33.4073 55.9138 32.3145 59.071 32.3145Z" fill="black"/>
<path id="dd-type-swap-new" d="M60.7922 79.0405C58.1208 79.0405 55.9351 78.4941 54.2351 77.4013C52.5351 76.3084 51.1387 74.912 50.0459 73.212C48.8316 71.1477 47.9816 69.0227 47.4959 66.837C47.1316 64.5299 46.9494 62.6477 46.9494 61.1906C46.9494 55.2406 48.4673 49.8371 51.503 44.98C54.5387 40.1228 59.2744 36.1764 65.7101 33.1407L67.3494 36.4193C63.5851 37.9978 60.3065 40.4871 57.5137 43.8871C54.8423 47.2871 53.5066 50.7478 53.5066 54.2692C53.5066 55.7263 53.6887 57.0013 54.053 58.0942C55.9958 56.5156 58.2423 55.7263 60.7922 55.7263C63.9494 55.7263 66.6815 56.7585 68.9886 58.8228C71.2958 60.887 72.4493 63.7406 72.4493 67.3834C72.4493 70.7834 71.2958 73.5763 68.9886 75.762C66.6815 77.9477 63.9494 79.0405 60.7922 79.0405Z" fill="black"/>
</g>
<rect id="dd-gender-color" x="11.3098" y="18.8127" width="7.07593" height="82.3651" fill="#D9D9D9"/>
<rect id="dd-spoke_more_than_intro-visible" x="18.3858" y="108.254" width="7.07593" height="83.0917" transform="rotate(-90 18.3858 108.254)" fill="black"/>
<g id="dd-introducer-swap">
<circle id="dd-introducer-swap-me" cx="109.869" cy="23.9242" r="4.7316" stroke="black"/>
</g>
<g id="dd-where_met-swap">
<path id="dd-where_met-swap-home" d="M96.9974 15.8127V15.5727C97.2694 15.5567 97.4734 15.5247 97.6094 15.4767C97.7534 15.4287 97.8494 15.3327 97.8974 15.1887C97.9454 15.0447 97.9694 14.8287 97.9694 14.5407V8.58873C97.9694 8.29273 97.9454 8.07673 97.8974 7.94073C97.8494 7.79673 97.7534 7.70073 97.6094 7.65273C97.4734 7.59673 97.2694 7.56473 96.9974 7.55673V7.31673C97.1814 7.32473 97.4134 7.33273 97.6934 7.34073C97.9734 7.34873 98.2494 7.35273 98.5214 7.35273C98.8334 7.35273 99.1254 7.34873 99.3974 7.34073C99.6694 7.33273 99.8894 7.32473 100.057 7.31673V7.55673C99.7854 7.56473 99.5774 7.59673 99.4334 7.65273C99.2974 7.70073 99.2054 7.79673 99.1574 7.94073C99.1094 8.07673 99.0854 8.29273 99.0854 8.58873V14.5407C99.0854 14.8287 99.1094 15.0447 99.1574 15.1887C99.2054 15.3327 99.2974 15.4287 99.4334 15.4767C99.5774 15.5247 99.7854 15.5567 100.057 15.5727V15.8127C99.8894 15.7967 99.6694 15.7887 99.3974 15.7887C99.1254 15.7807 98.8334 15.7767 98.5214 15.7767C98.2494 15.7767 97.9734 15.7807 97.6934 15.7887C97.4134 15.7887 97.1814 15.7967 96.9974 15.8127ZM91.9814 15.8127V15.5727C92.2534 15.5567 92.4574 15.5247 92.5934 15.4767C92.7374 15.4287 92.8334 15.3327 92.8814 15.1887C92.9294 15.0447 92.9534 14.8287 92.9534 14.5407V8.58873C92.9534 8.29273 92.9294 8.07673 92.8814 7.94073C92.8334 7.79673 92.7374 7.70073 92.5934 7.65273C92.4574 7.59673 92.2534 7.56473 91.9814 7.55673V7.31673C92.1494 7.32473 92.3694 7.33273 92.6414 7.34073C92.9134 7.34873 93.2054 7.35273 93.5174 7.35273C93.7974 7.35273 94.0734 7.34873 94.3454 7.34073C94.6254 7.33273 94.8574 7.32473 95.0414 7.31673V7.55673C94.7694 7.56473 94.5614 7.59673 94.4174 7.65273C94.2814 7.70073 94.1894 7.79673 94.1414 7.94073C94.0934 8.07673 94.0694 8.29273 94.0694 8.58873V14.5407C94.0694 14.8287 94.0934 15.0447 94.1414 15.1887C94.1894 15.3327 94.2814 15.4287 94.4174 15.4767C94.5614 15.5247 94.7694 15.5567 95.0414 15.5727V15.8127C94.8574 15.7967 94.6254 15.7887 94.3454 15.7887C94.0734 15.7807 93.7974 15.7767 93.5174 15.7767C93.2054 15.7767 92.9134 15.7807 92.6414 15.7887C92.3694 15.7887 92.1494 15.7967 91.9814 15.8127ZM93.6494 11.6607V11.4207H98.3894V11.6607H93.6494Z" fill="black"/>
<path id="dd-where_met-swap-school" d="M94.5494 7.18473C94.9494 7.18473 95.2534 7.23273 95.4614 7.32873C95.6694 7.41673 95.8534 7.51673 96.0134 7.62873C96.1094 7.68473 96.1854 7.72873 96.2414 7.76073C96.3054 7.78473 96.3654 7.79673 96.4214 7.79673C96.5014 7.79673 96.5574 7.75273 96.5894 7.66473C96.6294 7.57673 96.6614 7.44473 96.6854 7.26873H96.9614C96.9534 7.40473 96.9414 7.56873 96.9254 7.76073C96.9174 7.94473 96.9094 8.19273 96.9014 8.50473C96.9014 8.80873 96.9014 9.21273 96.9014 9.71673H96.6254C96.6014 9.33273 96.5174 8.96473 96.3734 8.61273C96.2294 8.26073 96.0174 7.97273 95.7374 7.74873C95.4654 7.52473 95.1054 7.41273 94.6574 7.41273C94.2334 7.41273 93.8814 7.54073 93.6014 7.79673C93.3294 8.05273 93.1934 8.38873 93.1934 8.80473C93.1934 9.16473 93.2854 9.46873 93.4694 9.71673C93.6534 9.95673 93.8974 10.1767 94.2014 10.3767C94.5134 10.5687 94.8494 10.7767 95.2094 11.0007C95.6254 11.2567 95.9934 11.5127 96.3134 11.7687C96.6414 12.0167 96.8974 12.2927 97.0814 12.5967C97.2734 12.9007 97.3694 13.2687 97.3694 13.7007C97.3694 14.2127 97.2534 14.6367 97.0214 14.9727C96.7894 15.3087 96.4814 15.5607 96.0974 15.7287C95.7134 15.8967 95.2894 15.9807 94.8254 15.9807C94.4014 15.9807 94.0654 15.9327 93.8174 15.8367C93.5694 15.7407 93.3574 15.6407 93.1814 15.5367C93.0054 15.4247 92.8694 15.3687 92.7734 15.3687C92.6934 15.3687 92.6334 15.4127 92.5934 15.5007C92.5614 15.5887 92.5334 15.7207 92.5094 15.8967H92.2334C92.2494 15.7287 92.2574 15.5327 92.2574 15.3087C92.2654 15.0767 92.2694 14.7767 92.2694 14.4087C92.2774 14.0407 92.2814 13.5767 92.2814 13.0167H92.5574C92.5894 13.4967 92.6774 13.9447 92.8214 14.3607C92.9734 14.7767 93.2014 15.1127 93.5054 15.3687C93.8174 15.6167 94.2294 15.7407 94.7414 15.7407C95.0054 15.7407 95.2534 15.6887 95.4854 15.5847C95.7254 15.4727 95.9214 15.3007 96.0734 15.0687C96.2254 14.8287 96.3014 14.5207 96.3014 14.1447C96.3014 13.8167 96.2214 13.5327 96.0614 13.2927C95.9094 13.0447 95.6934 12.8167 95.4134 12.6087C95.1334 12.3927 94.8054 12.1727 94.4294 11.9487C94.0534 11.7167 93.7014 11.4807 93.3734 11.2407C93.0454 11.0007 92.7814 10.7247 92.5814 10.4127C92.3894 10.0927 92.2934 9.70873 92.2934 9.26073C92.2934 8.78873 92.3974 8.40073 92.6054 8.09673C92.8214 7.78473 93.1014 7.55673 93.4454 7.41273C93.7894 7.26073 94.1574 7.18473 94.5494 7.18473Z" fill="black"/>
</g>
<line id="dd-supposed_to_know-visible" x1="104.637" y1="32.509" x2="115.1" y2="32.509" stroke="black" stroke-width="0.990197"/>
</g>
<defs>
<clipPath id="clip0_0_1">
<rect width="120" height="120" fill="white"/>
</clipPath>
</defs>
</svg>
