<svg width="800" height="600" viewBox="0 0 800 600" fill="none" xmlns="http://www.w3.org/2000/svg">
<rect width="800" height="600" fill="#F5F5F5"/>
<g id="canvas1">
<rect width="800" height="600" fill="white"/>
<path id="path1" d="M135.812 237.483C136.528 235.275 139.54 229.405 141.839 223.381C144.189 217.222 148.018 210.16 154.408 202.775C158.863 197.627 163.824 193.242 172.725 186.136C196.846 166.881 213.948 160.617 224.545 156.049C236.858 150.741 264.53 147.401 280.16 150.612C313.179 157.396 321.247 160.824 329.112 163.187C339.294 166.245 344.637 172.113 354.2 177.892C360.805 181.884 370.161 188.433 380.155 192.406C398.637 199.752 408.25 201.145 419.088 202.127C431.171 203.223 446.96 206.526 464.626 207.507C494.602 209.172 517.003 207.285 522.047 206.449C533.607 204.533 548.028 203.423 560.87 202.094C569.041 201.249 576.954 198.272 589.214 194.36C618.051 185.158 632.879 179.376 643.258 174.712C651.364 171.07 660.247 165.567 670.11 159.652C679.748 153.872 687.559 149.16 697.867 142.668C701.838 139.512 704.769 137.392 707.391 135.956C708.627 135.124 709.67 134.086 712.267 132.04" stroke="black" stroke-width="2" stroke-linecap="round"/>
<path id="path2" d="M122.041 338.576C124.169 339.289 141.063 343.867 155.215 348.18C164.953 351.148 172.852 352.324 182.271 354.559C192.019 356.872 204.813 358.719 225.723 359.87C234.918 360.376 242.054 361.782 286.202 361.965C305.858 362.047 313.667 359.846 327.55 359.216C338.269 358.73 349.783 356.95 363.194 355.888C397.297 353.189 405.089 357.198 413.953 358.809C438.557 363.28 455.696 370.004 462.387 372.385C465.538 373.507 468.421 374.444 479.801 377.545C508.622 385.399 530.13 393.728 535.787 394.876C545 396.746 550.357 399.994 559.782 403.84C575.657 410.317 585.302 410.24 604.868 414.832C614.731 417.146 622.017 417.989 631.652 418.902C638.312 419.533 644.683 421.62 651.742 422.88C657.698 423.943 668.693 426.942 678.95 430.542C691.239 434.401 695.496 436.16 698.165 437.715C699.529 438.243 700.915 438.243 705.119 439.308" stroke="black" stroke-width="2" stroke-linecap="round"/>
</g>
</svg>
